<svg xmlns="http://www.w3.org/2000/svg" version="1.1" xmlns:xlink="http://www.w3.org/1999/xlink" xmlns:svgjs="http://svgjs.dev/svgjs" width="128" height="128" viewBox="0 0 128 128"><g transform="matrix(0.8046875,0,0,0.8046875,12.333870967741937,12.333870967741937)"><svg viewBox="0 0 155 155" data-background-color="#ffffff" preserveAspectRatio="xMidYMid meet" height="128" width="128" xmlns="http://www.w3.org/2000/svg" xmlns:xlink="http://www.w3.org/1999/xlink"><g id="tight-bounds" transform="matrix(1,0,0,1,0.25,0.25)"><svg viewBox="0 0 154.5 154.5" height="154.5" width="154.5"><g><svg></svg></g><g><svg viewBox="0 0 154.5 154.5" height="154.5" width="154.5"><g transform="matrix(1,0,0,1,43.172077302631585,43.83165)"><svg viewBox="0 0 68.15584539473683 66.8367" height="66.8367" width="68.15584539473683"><g><svg viewBox="0 0 68.15584539473683 66.8367" height="66.8367" width="68.15584539473683"><g><svg viewBox="0 0 68.15584539473683 66.8367" height="66.8367" width="68.15584539473683"><g id="textblocktransform"><svg viewBox="0 0 68.15584539473683 66.8367" height="66.8367" width="68.15584539473683" id="textblock"><g><svg viewBox="0 0 68.15584539473683 66.8367" height="66.8367" width="68.15584539473683"><g transform="matrix(1,0,0,1,0,0)"><svg width="68.15584539473683" viewBox="1.9000000000000004 -36 39.75 39" height="66.8367" data-palette-color="#3e7575"><path d="M30.85-33L38.65-33 38.65 0 33.7 0 33.7-19.1 34.1-28.2 34.05-28.2 24 0 19.55 0 9.5-28.2 9.45-28.2 9.85-19.1 9.85 0 4.9 0 4.9-33 12.85-33 19.5-13.9 21.8-6.05 21.9-6.05 24.25-13.9 30.85-33Z" opacity="1" transform="matrix(1,0,0,1,0,0)" fill="#ffffff" class="undefined-text-0" data-fill-palette-color="primary" id="text-0"></path></svg></g></svg></g></svg></g></svg></g></svg></g></svg></g><g><path d="M0 154.5v-154.5h154.5v154.5zM149.266 149.266v-144.032h-144.032v144.032z" fill="#ffffff" fill-rule="nonzero" stroke="none" stroke-width="1" stroke-linecap="butt" stroke-linejoin="miter" stroke-miterlimit="10" stroke-dasharray="" stroke-dashoffset="0" font-family="none" font-weight="none" font-size="none" text-anchor="none" style="mix-blend-mode: normal" data-fill-palette-color="tertiary"></path></g></svg></g><defs><mask><rect width="154.5" height="154.5" fill="white"></rect><g transform="matrix(1,0,0,1,43.172077302631585,43.83165)" id="clone"><svg viewBox="0 0 68.15584539473683 66.8367" height="66.8367" width="68.15584539473683"><g><svg viewBox="0 0 68.15584539473683 66.8367" height="66.8367" width="68.15584539473683"><g><svg viewBox="0 0 68.15584539473683 66.8367" height="66.8367" width="68.15584539473683"><g id="SvgjsG1002"><svg viewBox="0 0 68.15584539473683 66.8367" height="66.8367" width="68.15584539473683" id="SvgjsSvg1001"><g><svg viewBox="0 0 68.15584539473683 66.8367" height="66.8367" width="68.15584539473683"><g transform="matrix(1,0,0,1,0,0)"><svg width="68.15584539473683" viewBox="1.9000000000000004 -36 39.75 39" height="66.8367" data-palette-color="#3e7575"><path d="M30.85-33L38.65-33 38.65 0 33.7 0 33.7-19.1 34.1-28.2 34.05-28.2 24 0 19.55 0 9.5-28.2 9.45-28.2 9.85-19.1 9.85 0 4.9 0 4.9-33 12.85-33 19.5-13.9 21.8-6.05 21.9-6.05 24.25-13.9 30.85-33Z" opacity="1" transform="matrix(1,0,0,1,0,0)" fill="#ffffff" class="undefined-text-0" data-fill-palette-color="primary" id="SvgjsPath1000" stroke-width="5" stroke="black" stroke-linejoin="round"></path></svg></g></svg></g></svg></g></svg></g></svg></g></svg></g></mask></defs></svg><rect width="154.5" height="154.5" fill="none" stroke="none" visibility="hidden"></rect></g></svg></g></svg>