<svg xmlns="http://www.w3.org/2000/svg" version="1.1" xmlns:xlink="http://www.w3.org/1999/xlink" xmlns:svgjs="http://svgjs.dev/svgjs" width="2000" height="1247" viewBox="0 0 2000 1247"><g transform="matrix(1,0,0,1,-1.2121212121212466,0.504858299595071)"><svg viewBox="0 0 396 247" data-background-color="#ffffff" preserveAspectRatio="xMidYMid meet" height="1247" width="2000" xmlns="http://www.w3.org/2000/svg" xmlns:xlink="http://www.w3.org/1999/xlink"><g id="tight-bounds" transform="matrix(1,0,0,1,0.2400000000000091,-0.09999999999999432)"><svg viewBox="0 0 395.52 247.2" height="247.2" width="395.52"><g><svg></svg></g><g><svg viewBox="0 0 395.52 247.2" height="247.2" width="395.52"><g mask="url(&quot;#afcb4bba-ee71-4e5c-a62d-577b37683011&quot;)"><g><path d="M245.025 37.663h40.625v171.874h-25.781v-99.479l2.083-47.395h-0.26l-52.344 146.874h-23.176l-52.344-146.874h-0.26l2.083 47.395v99.479h-25.781v-171.874h41.406l34.635 99.479 11.979 40.885h0.521l12.24-40.885z" fill="#ffffff" fill-rule="nonzero" stroke="none" stroke-width="1" stroke-linecap="butt" stroke-linejoin="miter" stroke-miterlimit="10" stroke-dasharray="" stroke-dashoffset="0" font-family="none" font-weight="none" font-size="none" text-anchor="none" style="mix-blend-mode: normal" data-fill-palette-color="tertiary"></path></g></g><g transform="matrix(1,0,0,1,109.53236842105264,37.08)"><svg viewBox="0 0 176.4552631578947 173.04" height="173.04" width="176.4552631578947"><g><svg viewBox="0 0 176.4552631578947 173.04" height="173.04" width="176.4552631578947"><g><svg viewBox="0 0 176.45526315789473 173.04000000000002" height="173.04" width="176.4552631578947"><g><svg viewBox="0 0 176.45526315789473 173.04000000000002" height="173.04000000000002" width="176.45526315789473"><g id="textblocktransform"><svg viewBox="0 0 176.45526315789473 173.04000000000002" height="173.04000000000002" width="176.45526315789473" id="textblock"><g><svg viewBox="0 0 176.45526315789473 173.04000000000002" height="173.04000000000002" width="176.45526315789473"><g transform="matrix(1,0,0,1,0,0)"><svg width="176.45526315789473" viewBox="1.9000000000000004 -36 39.75 39" height="173.04000000000002" data-palette-color="#3e7575"><path d="M30.85-33L38.65-33 38.65 0 33.7 0 33.7-19.1 34.1-28.2 34.05-28.2 24 0 19.55 0 9.5-28.2 9.45-28.2 9.85-19.1 9.85 0 4.9 0 4.9-33 12.85-33 19.5-13.9 21.8-6.05 21.9-6.05 24.25-13.9 30.85-33Z" opacity="1" transform="matrix(1,0,0,1,0,0)" fill="#ffffff" class="undefined-text-0" data-fill-palette-color="primary" id="text-0"></path></svg></g></svg></g></svg></g></svg></g></svg></g></svg></g></svg></g></svg></g><defs><mask id="afcb4bba-ee71-4e5c-a62d-577b37683011"><rect width="395.52" height="247.2" fill="white"></rect><g transform="matrix(1,0,0,1,109.53236842105264,37.08)" id="clone"><svg viewBox="0 0 176.4552631578947 173.04" height="173.04" width="176.4552631578947"><g><svg viewBox="0 0 176.4552631578947 173.04" height="173.04" width="176.4552631578947"><g><svg viewBox="0 0 176.45526315789473 173.04000000000002" height="173.04" width="176.4552631578947"><g><svg viewBox="0 0 176.45526315789473 173.04000000000002" height="173.04000000000002" width="176.45526315789473"><g id="SvgjsG1103"><svg viewBox="0 0 176.45526315789473 173.04000000000002" height="173.04000000000002" width="176.45526315789473" id="SvgjsSvg1102"><g><svg viewBox="0 0 176.45526315789473 173.04000000000002" height="173.04000000000002" width="176.45526315789473"><g transform="matrix(1,0,0,1,0,0)"><svg width="176.45526315789473" viewBox="1.9000000000000004 -36 39.75 39" height="173.04000000000002" data-palette-color="#3e7575"><path d="M30.85-33L38.65-33 38.65 0 33.7 0 33.7-19.1 34.1-28.2 34.05-28.2 24 0 19.55 0 9.5-28.2 9.45-28.2 9.85-19.1 9.85 0 4.9 0 4.9-33 12.85-33 19.5-13.9 21.8-6.05 21.9-6.05 24.25-13.9 30.85-33Z" opacity="1" transform="matrix(1,0,0,1,0,0)" fill="#ffffff" class="undefined-text-0" data-fill-palette-color="primary" id="SvgjsPath1101" stroke-width="5" stroke="black" stroke-linejoin="round"></path></svg></g></svg></g></svg></g></svg></g></svg></g></svg></g></svg></g></mask></defs></svg><rect width="395.52" height="247.2" fill="none" stroke="none" visibility="hidden"></rect></g></svg></g></svg>